# Blender v2.71 (sub 0) OBJ File: 'pacman_2.blend'
# www.blender.org
mtllib pacman_2.mtl
o Sphere.000_Sphere.002
v -0.382683 0.923880 0.000000
v -0.707107 0.707107 0.000000
v -0.923880 0.382683 0.000000
v -1.000000 -0.000000 0.000000
v -0.923880 -0.382684 0.000000
v -0.707107 -0.707107 0.000000
v -0.382683 -0.923880 0.000000
v -0.000000 -1.000000 0.000000
v -0.270598 0.923880 -0.270598
v -0.500000 0.707107 -0.500000
v -0.653282 0.382683 -0.653281
v -0.653282 -0.382684 -0.653281
v -0.500000 -0.707107 -0.500000
v -0.270598 -0.923880 -0.270598
v -0.000000 0.923880 -0.382683
v -0.000000 0.707107 -0.707107
v -0.000000 0.382683 -0.923880
v -0.000000 -0.382684 -0.923879
v -0.000000 -0.707107 -0.707107
v -0.000000 -0.923880 -0.382683
v -0.000000 1.000000 0.000000
v 0.270598 0.923880 -0.270598
v 0.500000 0.707107 -0.500000
v 0.653281 0.382683 -0.653281
v 0.653281 -0.382684 -0.653281
v 0.500000 -0.707107 -0.500000
v 0.270598 -0.923880 -0.270598
v 0.382683 0.923880 0.000000
v 0.707107 0.707107 0.000000
v 0.923879 0.382683 0.000000
v 1.000000 -0.000000 0.000000
v 0.923879 -0.382684 0.000000
v 0.707106 -0.707107 0.000000
v 0.382683 -0.923880 0.000000
v 0.270598 0.923880 0.270598
v 0.500000 0.707107 0.500000
v 0.653281 0.382683 0.653282
v 0.707106 -0.000000 0.707107
v 0.653281 -0.382684 0.653282
v 0.500000 -0.707107 0.500000
v 0.270598 -0.923880 0.270598
v -0.000000 0.923880 0.382683
v -0.000000 0.707107 0.707107
v -0.000000 0.382683 0.923880
v -0.000000 -0.000000 1.000000
v -0.000000 -0.382684 0.923880
v -0.000000 -0.707107 0.707107
v -0.000000 -0.923880 0.382683
v -0.270598 0.923880 0.270598
v -0.500000 0.707107 0.500000
v -0.653282 0.382683 0.653281
v -0.707107 -0.000000 0.707107
v -0.653282 -0.382684 0.653281
v -0.500000 -0.707107 0.500000
v -0.270598 -0.923880 0.270598
v -0.677668 -0.000000 0.177690
v -0.733503 -0.000000 0.177690
v -0.479184 -0.000000 0.071816
v -0.000000 -0.000000 0.027962
v 0.479184 -0.000000 0.071816
v 0.677668 -0.000000 0.177690
v 0.733503 -0.000000 0.177690
vt 0.346338 0.486138
vt 0.326880 0.486138
vt 0.331343 0.472839
vt 0.217793 0.586496
vt 0.217793 0.561072
vt 0.231501 0.564055
vt 0.321179 0.602815
vt 0.329179 0.566808
vt 0.346338 0.569022
vt 0.310331 0.603050
vt 0.346338 0.611051
vt 0.344123 0.628209
vt 0.236796 0.510687
vt 0.217337 0.510687
vt 0.214355 0.496978
vt 0.260973 0.496744
vt 0.250442 0.496744
vt 0.245979 0.483444
vt 0.320944 0.483209
vt 0.301485 0.483209
vt 0.305949 0.469909
vt 0.223741 0.527655
vt 0.223741 0.553078
vt 0.210033 0.550096
vt 0.259489 0.566080
vt 0.283974 0.572927
vt 0.280116 0.602815
vt 0.284208 0.602815
vt 0.291056 0.578331
vt 0.320944 0.582188
vt 0.223976 0.550096
vt 0.223976 0.530637
vt 0.237684 0.527655
vt 0.221587 0.496744
vt 0.211056 0.496744
vt 0.206592 0.483444
vt 0.281557 0.492280
vt 0.268257 0.496744
vt 0.268257 0.477285
vt 0.332630 0.537456
vt 0.332630 0.512032
vt 0.346338 0.515014
vt 0.295783 0.569931
vt 0.287350 0.577774
vt 0.285368 0.578096
vt 0.262455 0.524629
vt 0.242996 0.524629
vt 0.240013 0.510921
vt 0.214120 0.509635
vt 0.214120 0.520166
vt 0.200820 0.524629
vt 0.190340 0.539779
vt 0.209798 0.539779
vt 0.205334 0.553078
vt 0.230537 0.614501
vt 0.255961 0.614501
vt 0.252978 0.628209
vt 0.296018 0.578096
vt 0.313164 0.553313
vt 0.320944 0.555525
vt 0.256196 0.607288
vt 0.281620 0.607288
vt 0.285078 0.624509
vt 0.214355 0.524629
vt 0.217337 0.510921
vt 0.236796 0.510921
vt 0.204377 0.589515
vt 0.214908 0.589515
vt 0.219371 0.602815
vt 0.281792 0.469909
vt 0.301250 0.469909
vt 0.296787 0.483209
vt 0.240013 0.496978
vt 0.265437 0.496978
vt 0.262455 0.510687
vt 0.294473 0.553078
vt 0.293425 0.539089
vt 0.320944 0.539089
vt 0.294473 0.524864
vt 0.319896 0.524864
vt 0.320944 0.538854
vt 0.270749 0.510921
vt 0.290208 0.510921
vt 0.293190 0.524629
vt 0.286256 0.483444
vt 0.296787 0.483444
vt 0.301250 0.496744
vt 0.194803 0.539544
vt 0.190340 0.526244
vt 0.209798 0.526244
vt 0.269861 0.496978
vt 0.295285 0.496978
vt 0.292303 0.510686
vt 0.265672 0.524864
vt 0.293190 0.524864
vt 0.292143 0.538854
vt 0.238966 0.524864
vt 0.264390 0.524864
vt 0.265437 0.538854
vt 0.222589 0.589107
vt 0.242047 0.589107
vt 0.245030 0.602815
vt 0.202564 0.559662
vt 0.213095 0.559662
vt 0.217558 0.572962
vt 0.305949 0.496744
vt 0.301485 0.483444
vt 0.320944 0.483444
vt 0.298503 0.510686
vt 0.295520 0.496978
vt 0.320944 0.496978
vt 0.265672 0.539089
vt 0.293190 0.539089
vt 0.292143 0.553078
vt 0.238966 0.539089
vt 0.264390 0.539089
vt 0.265437 0.553078
vt 0.298503 0.510921
vt 0.317961 0.510921
vt 0.320944 0.524629
vt 0.230749 0.483444
vt 0.241280 0.483444
vt 0.245744 0.496744
vt 0.222881 0.473448
vt 0.236910 0.473448
vt 0.232957 0.483209
vt 0.197865 0.586496
vt 0.184862 0.581231
vt 0.197865 0.575965
vt 0.200585 0.505100
vt 0.187582 0.510366
vt 0.187582 0.499835
vt 0.241097 0.473448
vt 0.251174 0.483209
vt 0.237145 0.483209
vt 0.332395 0.508929
vt 0.322634 0.498852
vt 0.332395 0.494900
vt 0.199141 0.604506
vt 0.213170 0.604506
vt 0.203094 0.614267
vt 0.245030 0.583607
vt 0.232027 0.588872
vt 0.232027 0.578341
vt 0.217358 0.604506
vt 0.227434 0.614267
vt 0.213405 0.614267
vt 0.332395 0.537456
vt 0.322634 0.527379
vt 0.332395 0.523427
vt 0.251408 0.473448
vt 0.265437 0.473448
vt 0.255361 0.483209
vt 0.227669 0.614267
vt 0.237745 0.604506
vt 0.241697 0.614267
vt 0.322634 0.523192
vt 0.322634 0.509163
vt 0.332395 0.519240
vt 0.241932 0.604506
vt 0.255961 0.604506
vt 0.252008 0.614267
vt 0.198907 0.614267
vt 0.185903 0.609001
vt 0.198907 0.603736
vt 0.209643 0.477944
vt 0.222646 0.472678
vt 0.222646 0.483209
vt 0.206357 0.477285
vt 0.206357 0.496744
vt 0.193057 0.492280
vt 0.346338 0.486373
vt 0.346338 0.511797
vt 0.332630 0.508814
vt 0.259255 0.575297
vt 0.259255 0.602815
vt 0.245265 0.601768
vt 0.258207 0.575062
vt 0.232783 0.575062
vt 0.231736 0.561072
vt 0.230302 0.614501
vt 0.227320 0.628209
vt 0.207861 0.628209
vt 0.213095 0.586496
vt 0.202564 0.586496
vt 0.198100 0.573196
vt 0.189917 0.602815
vt 0.189917 0.588786
vt 0.199678 0.598863
vt 0.200585 0.510601
vt 0.200585 0.524629
vt 0.187321 0.513116
vt 0.275809 0.555431
vt 0.283652 0.563864
vt 0.283974 0.565845
vt 0.285313 0.603283
vt 0.310096 0.620430
vt 0.307884 0.628209
vt 0.325417 0.566573
vt 0.325417 0.541149
vt 0.342637 0.537690
vt 0.190615 0.614945
vt 0.204644 0.614945
vt 0.193130 0.628209
vt 0.341874 0.472839
vt 0.231501 0.583513
vt 0.346338 0.599158
vt 0.313987 0.628209
vt 0.239779 0.496978
vt 0.265437 0.483444
vt 0.316480 0.469909
vt 0.210033 0.530637
vt 0.262815 0.602815
vt 0.320944 0.599489
vt 0.237684 0.553078
vt 0.226050 0.483444
vt 0.281557 0.481749
vt 0.346338 0.534473
vt 0.285368 0.560532
vt 0.265437 0.510921
vt 0.200820 0.505171
vt 0.194803 0.553078
vt 0.233520 0.628209
vt 0.320944 0.573089
vt 0.277886 0.628209
vt 0.239779 0.524629
vt 0.199913 0.602815
vt 0.286256 0.483209
vt 0.242996 0.510687
vt 0.319896 0.553078
vt 0.293425 0.538854
vt 0.267767 0.524629
vt 0.281792 0.496744
vt 0.205334 0.539544
vt 0.272844 0.510686
vt 0.266719 0.538854
vt 0.237919 0.538854
vt 0.219606 0.602815
vt 0.198100 0.572962
vt 0.316480 0.496744
vt 0.317961 0.510686
vt 0.266719 0.553078
vt 0.237919 0.553078
vt 0.295520 0.524629
vt 0.226285 0.496744
vt 0.193057 0.481749
vt 0.332630 0.489356
vt 0.245265 0.576344
vt 0.259255 0.561072
vt 0.204878 0.614501
vt 0.217558 0.573196
vt 0.189222 0.512470
vt 0.266410 0.565845
vt 0.290320 0.628209
vt 0.346338 0.544882
vt 0.192484 0.626309
vn -0.541400 -0.810300 -0.224300
vn -0.786200 -0.525300 -0.325600
vn 0.034100 0.927300 -0.372800
vn -0.034100 -0.927300 -0.372800
vn -0.786200 0.525300 -0.325600
vn -0.541400 0.810300 -0.224300
vn -0.224300 -0.810300 -0.541400
vn -0.325600 -0.525300 -0.786200
vn -0.176400 0.887400 -0.426000
vn 0.176400 -0.887400 -0.426000
vn -0.325600 0.525300 -0.786200
vn -0.224300 0.810300 -0.541400
vn 0.224300 -0.810300 -0.541400
vn 0.325600 -0.525300 -0.786200
vn 0.000000 -1.000000 0.000000
vn 0.325600 0.525300 -0.786200
vn 0.224300 0.810300 -0.541400
vn 0.541400 -0.810300 -0.224300
vn 0.786200 -0.525300 -0.325600
vn 0.220500 0.883500 -0.413300
vn 0.731300 -0.611100 -0.302900
vn 0.786200 0.525300 -0.325600
vn 0.541400 0.810300 -0.224300
vn 0.541400 -0.810300 0.224300
vn 0.786200 -0.525300 0.325600
vn 0.908700 -0.180700 0.376400
vn 0.908700 0.180700 0.376400
vn 0.786200 0.525300 0.325600
vn 0.541400 0.810300 0.224300
vn 0.224300 -0.810300 0.541400
vn 0.325600 -0.525300 0.786200
vn 0.376400 -0.180700 0.908700
vn 0.376400 0.180700 0.908700
vn 0.325600 0.525300 0.786200
vn 0.224300 0.810300 0.541400
vn -0.224300 -0.810300 0.541400
vn -0.325600 -0.525300 0.786200
vn -0.376400 -0.180700 0.908700
vn -0.376400 0.180700 0.908700
vn -0.325600 0.525300 0.786200
vn -0.224300 0.810300 0.541400
vn -0.194500 -0.977600 -0.080500
vn -0.194500 0.977600 -0.080500
vn -0.080500 -0.977600 -0.194500
vn -0.080500 0.977600 -0.194500
vn 0.080500 -0.977600 -0.194500
vn 0.080500 0.977600 -0.194500
vn 0.194500 -0.977600 -0.080500
vn 0.194500 0.977600 -0.080500
vn 0.194500 -0.977600 0.080500
vn 0.194500 0.977600 0.080500
vn 0.080500 -0.977600 0.194500
vn 0.080500 0.977600 0.194500
vn -0.080500 -0.977600 0.194500
vn -0.080500 0.977600 0.194500
vn -0.194500 -0.977600 0.080500
vn -0.541400 -0.810300 0.224300
vn -0.786200 -0.525300 0.325600
vn -0.908700 -0.180700 0.376400
vn -0.908700 0.180700 0.376400
vn -0.786200 0.525300 0.325600
vn -0.541400 0.810300 0.224300
vn -0.194500 0.977600 0.080500
vn -0.480600 0.095600 -0.871700
vn 0.000000 1.000000 -0.000000
vn -0.220500 -0.883500 -0.413300
vn -0.731300 0.611100 -0.302900
vn 0.480600 -0.095600 -0.871700
vn 0.176400 0.887400 -0.426000
vn -0.176400 -0.887400 -0.426000
vn -0.034100 0.927300 -0.372800
vn 0.034100 -0.927300 -0.372800
vn -0.480600 -0.095600 -0.871700
vn 0.731300 0.611100 -0.302900
vn 0.220500 -0.883500 -0.413300
vn 0.480600 0.095600 -0.871700
vn -0.731300 -0.611100 -0.302900
vn -0.220500 0.883500 -0.413300
usemtl Material.001
s off
f 6/1/1 13/2/1 14/3/1
f 5/4/2 12/5/2 13/6/2
f 18/7/3 59/8/3 60/9/3
f 17/10/4 59/11/4 58/12/4
f 2/13/5 10/14/5 11/15/5
f 1/16/6 9/17/6 10/18/6
f 13/19/7 19/20/7 20/21/7
f 12/22/8 18/23/8 19/24/8
f 18/25/9 12/26/9 58/27/9
f 17/28/10 24/29/10 60/30/10
f 10/31/11 16/32/11 17/33/11
f 9/34/12 15/35/12 16/36/12
f 20/37/13 19/38/13 26/39/13
f 18/40/14 25/41/14 26/42/14
f 31/43/15 62/44/15 61/45/15
f 16/46/16 23/47/16 24/48/16
f 15/49/17 22/50/17 23/51/17
f 26/52/18 33/53/18 34/54/18
f 25/55/19 32/56/19 33/57/19
f 25/58/20 60/59/20 61/60/20
f 24/61/21 30/62/21 61/63/21
f 24/64/22 23/65/22 29/66/22
f 22/67/23 28/68/23 29/69/23
f 33/70/24 40/71/24 41/72/24
f 32/73/25 39/74/25 40/75/25
f 32/76/26 31/77/26 38/78/26
f 30/79/27 37/80/27 38/81/27
f 29/82/28 36/83/28 37/84/28
f 28/85/29 35/86/29 36/87/29
f 41/88/30 40/89/30 47/90/30
f 39/91/31 46/92/31 47/93/31
f 38/94/32 45/95/32 46/96/32
f 37/97/33 44/98/33 45/99/33
f 36/100/34 43/101/34 44/102/34
f 35/103/35 42/104/35 43/105/35
f 48/106/36 47/107/36 54/108/36
f 47/109/37 46/110/37 53/111/37
f 45/112/38 52/113/38 53/114/38
f 44/115/39 51/116/39 52/117/39
f 43/118/40 50/119/40 51/120/40
f 42/121/41 49/122/41 50/123/41
f 8/124/42 7/125/42 14/126/42
f 1/127/43 21/128/43 9/129/43
f 8/130/44 14/131/44 20/132/44
f 9/133/45 21/134/45 15/135/45
f 8/136/46 20/137/46 27/138/46
f 15/139/47 21/140/47 22/141/47
f 8/142/48 27/143/48 34/144/48
f 22/145/49 21/146/49 28/147/49
f 8/148/50 34/149/50 41/150/50
f 28/151/51 21/152/51 35/153/51
f 8/154/52 41/155/52 48/156/52
f 35/157/53 21/158/53 42/159/53
f 8/160/54 48/161/54 55/162/54
f 42/163/55 21/164/55 49/165/55
f 8/166/56 55/167/56 7/168/56
f 54/169/57 6/170/57 7/171/57
f 53/172/58 5/173/58 6/174/58
f 52/175/59 4/176/59 5/177/59
f 51/178/60 3/179/60 4/180/60
f 51/181/61 50/182/61 2/183/61
f 49/184/62 1/185/62 2/186/62
f 49/187/63 21/188/63 1/189/63
f 31/190/64 32/191/64 61/192/64
f 4/193/65 57/194/65 56/195/65
f 11/196/66 58/197/66 56/198/66
f 12/199/67 5/200/67 56/201/67
f 4/202/68 3/203/68 56/204/68
f 7/205/1 6/1/1 14/3/1
f 6/206/2 5/4/2 13/6/2
f 25/207/69 18/7/69 60/9/69
f 11/208/70 17/10/70 58/12/70
f 3/209/5 2/13/5 11/15/5
f 2/210/6 1/16/6 10/18/6
f 14/211/7 13/19/7 20/21/7
f 13/212/8 12/22/8 19/24/8
f 59/213/71 18/25/71 58/27/71
f 59/214/72 17/28/72 60/30/72
f 11/215/11 10/31/11 17/33/11
f 10/216/12 9/34/12 16/36/12
f 27/217/13 20/37/13 26/39/13
f 19/218/14 18/40/14 26/42/14
f 30/219/73 31/43/73 61/45/73
f 17/220/16 16/46/16 24/48/16
f 16/221/17 15/49/17 23/51/17
f 27/222/18 26/52/18 34/54/18
f 26/223/19 25/55/19 33/57/19
f 32/224/74 25/58/74 61/60/74
f 60/225/75 24/61/75 61/63/75
f 30/226/22 24/64/22 29/66/22
f 23/227/23 22/67/23 29/69/23
f 34/228/24 33/70/24 41/72/24
f 33/229/25 32/73/25 40/75/25
f 39/230/26 32/76/26 38/78/26
f 31/231/27 30/79/27 38/81/27
f 30/232/28 29/82/28 37/84/28
f 29/233/29 28/85/29 36/87/29
f 48/234/30 41/88/30 47/90/30
f 40/235/31 39/91/31 47/93/31
f 39/236/32 38/94/32 46/96/32
f 38/237/33 37/97/33 45/99/33
f 37/238/34 36/100/34 44/102/34
f 36/239/35 35/103/35 43/105/35
f 55/240/36 48/106/36 54/108/36
f 54/241/37 47/109/37 53/111/37
f 46/242/38 45/112/38 53/114/38
f 45/243/39 44/115/39 52/117/39
f 44/244/40 43/118/40 51/120/40
f 43/245/41 42/121/41 50/123/41
f 55/246/57 54/169/57 7/171/57
f 54/247/58 53/172/58 6/174/58
f 53/248/59 52/175/59 5/177/59
f 52/249/60 51/178/60 4/180/60
f 3/250/61 51/181/61 2/183/61
f 50/251/62 49/184/62 2/186/62
f 62/252/65 31/190/65 61/192/65
f 5/253/76 4/193/76 56/195/76
f 3/254/77 11/196/77 56/198/77
f 58/255/78 12/199/78 56/201/78
f 57/256/15 4/202/15 56/204/15
