# Blender v2.71 (sub 0) OBJ File: 'plants.blend'
# www.blender.org
mtllib plants.mtl
o Plane.001
v 0.018296 -0.201365 1.098580
v 0.018294 -0.201365 -0.901420
v 0.018298 1.798635 1.098580
v 0.018296 1.798635 -0.901420
v -0.981704 -0.201365 0.098579
v 1.018296 -0.201365 0.098579
v -0.981704 1.798635 0.098581
v 1.018296 1.798635 0.098581
vt 0.999900 0.000100
vt 0.999900 0.999900
vt 0.000100 0.999900
vt 0.000100 0.000100
vn 1.000000 -0.000000 -0.000000
vn 0.000000 -0.000000 1.000000
usemtl Material.002
s off
f 2/1/1 4/2/1 3/3/1
f 6/1/2 8/2/2 7/3/2
f 1/4/1 2/1/1 3/3/1
f 5/4/2 6/1/2 7/3/2
