# Blender v2.71 (sub 0) OBJ File: ''
# www.blender.org
mtllib wuerfel.mtl
o Cube
v 1.000000 -1.000000 -1.000000
v 1.000000 -1.000000 1.000000
v -1.000000 -1.000000 1.000000
v -1.000000 -1.000000 -1.000000
v 1.000000 1.000000 -0.999999
v 0.999999 1.000000 1.000001
v -1.000000 1.000000 1.000000
v -1.000000 1.000000 -1.000000
v 1.000000 1.000000 0.000001
v 0.000000 1.000000 -1.000000
v -0.000001 1.000000 1.000000
v -1.000000 1.000000 -0.000000
v -0.000000 5.336787 0.000000
v 1.000000 0.000000 -1.000000
v 1.000000 0.000000 1.000000
v -1.000000 0.000000 1.000000
v -1.000000 0.000000 -1.000000
v 0.533403 -0.766701 -0.533403
v 0.533403 -0.766701 0.533403
v -0.533403 -0.766701 0.533403
v -0.533403 -0.766701 -0.533403
v 0.533403 -0.233299 -0.533403
v 0.533403 -0.233299 0.533403
v -0.533403 -0.233299 0.533403
v -0.533403 -0.233299 -0.533403
vn 0.000000 -1.000000 0.000000
vn -0.974400 0.224700 -0.000000
vn 1.000000 0.000000 0.000000
vn -0.000000 0.000000 1.000000
vn -1.000000 -0.000000 -0.000000
vn 0.447200 -0.894400 0.000000
vn -0.000000 0.224700 0.974400
vn 0.000000 0.224700 -0.974400
vn -0.000000 -0.894400 0.447200
vn -0.447200 -0.894400 -0.000000
vn 0.000000 -0.894400 -0.447200
vn 0.000000 0.000000 -1.000000
vn -0.447200 0.894400 -0.000000
vn -0.000000 0.894400 0.447200
vn 0.000000 0.894400 -0.447200
vn 0.447200 0.894400 0.000000
vn 0.974400 0.224700 0.000000
usemtl Material
s off
f 2//1 3//1 4//1
f 13//2 12//2 7//2
f 6//3 15//3 9//3
f 7//4 16//4 11//4
f 8//5 17//5 12//5
f 14//6 15//6 23//6
f 13//7 11//7 6//7
f 5//8 10//8 13//8
f 8//2 12//2 13//2
f 15//9 16//9 24//9
f 17//10 25//10 24//10
f 14//11 22//11 25//11
f 8//12 10//12 17//12
f 18//12 21//12 25//12
f 18//3 22//3 23//3
f 23//4 24//4 20//4
f 24//5 25//5 21//5
f 4//13 3//13 20//13
f 2//14 19//14 20//14
f 1//15 4//15 21//15
f 2//16 1//16 18//16
f 1//1 2//1 4//1
f 11//7 13//7 7//7
f 5//3 9//3 14//3
f 6//4 11//4 15//4
f 9//3 15//3 14//3
f 7//5 12//5 16//5
f 11//4 16//4 15//4
f 22//6 14//6 23//6
f 12//5 17//5 16//5
f 9//17 13//17 6//17
f 9//17 5//17 13//17
f 10//8 8//8 13//8
f 23//9 15//9 24//9
f 16//10 17//10 24//10
f 17//11 14//11 25//11
f 10//12 5//12 14//12
f 22//12 18//12 25//12
f 19//3 18//3 23//3
f 10//12 14//12 17//12
f 19//4 23//4 20//4
f 20//5 24//5 21//5
f 21//13 4//13 20//13
f 3//14 2//14 20//14
f 18//15 1//15 21//15
f 19//16 2//16 18//16
